<svg xmlns="http://www.w3.org/2000/svg" version="1.1" xmlns:xlink="http://www.w3.org/1999/xlink" width="512" height="512" x="0" y="0" viewBox="0 0 28 28" style="enable-background:new 0 0 512 512" xml:space="preserve" class=""><g><switch><g><path fill="#878b95" d="M26 16v2c0 2.2-1.8 4-4 4H5.4l2.3 2.3c.4.4.4 1 0 1.4s-1 .4-1.4 0l-4-4c-.4-.4-.4-1 0-1.4l4-4c.4-.4 1-.4 1.4 0s.4 1 0 1.4L5.4 20H22c1.1 0 2-.9 2-2v-2c0-.6.4-1 1-1s1 .4 1 1zM3 13c.6 0 1-.4 1-1v-2c0-1.1.9-2 2-2h16.6l-2.3 2.3c-.4.4-.4 1 0 1.4s1 .4 1.4 0l4-4c.4-.4.4-1 0-1.4l-4-4c-.4-.4-1-.4-1.4 0s-.4 1 0 1.4L22.6 6H6c-2.2 0-4 1.8-4 4v2c0 .6.4 1 1 1z" opacity="1" data-original="#0a0b12" class=""></path></g></switch></g></svg>